<?xml version="1.0" encoding="utf-8"?>
<!-- Uploaded to: SVG Repo, www.svgrepo.com, Generator: SVG Repo Mixer Tools -->
<svg width="120px" height="120px" viewBox="0 0 1024 1024" class="icon"  version="1.1" xmlns="http://www.w3.org/2000/svg"><path d="M513.406637 239.240236c151.9488 0 275.061534 123.176673 275.061534 275.061534s-123.112735 275.061534-275.061534 275.061534c-151.884862 0-275.061534-123.176673-275.061534-275.061534s123.176673-275.061534 275.061534-275.061534z" fill="#FFB578" /><path d="M513.406637 811.741625c-164.007518 0-297.439855-133.429141-297.439855-297.439855 0-164.007518 133.432337-297.439855 297.439855-297.439855s297.443052 133.429141 297.443052 297.439855c-0.003197 164.007518-133.435534 297.439855-297.443052 297.439855z m0-550.123068c-139.330623 0-252.683213 113.35259-252.683213 252.683213 0 139.330623 113.35259 252.683213 252.683213 252.683213 139.330623 0 252.68641-113.35259 252.68641-252.683213-0.003197-139.330623-113.355787-252.683213-252.68641-252.683213zM182.910805 535.084837h-122.697137a22.378321 22.378321 0 0 1 0-44.756642h122.697137a22.378321 22.378321 0 1 1 0 44.756642zM959.150823 535.084837h-122.729107a22.378321 22.378321 0 0 1 0-44.756642h122.729107a22.378321 22.378321 0 1 1 0 44.756642zM509.666261 984.534232a22.378321 22.378321 0 0 1-22.378321-22.378321v-122.697137a22.378321 22.378321 0 1 1 44.756642 0v122.697137a22.378321 22.378321 0 0 1-22.378321 22.378321zM509.666261 208.326184a22.378321 22.378321 0 0 1-22.378321-22.378321v-122.761075a22.378321 22.378321 0 1 1 44.756642 0v122.761075a22.378321 22.378321 0 0 1-22.378321 22.378321z" fill="#4F46A3" /><path d="M191.830165 852.885767a22.378321 22.378321 0 0 1-15.821473-38.206188l86.763947-86.728781a22.378321 22.378321 0 0 1 31.639749 31.652536l-86.763947 86.728782a22.304792 22.304792 0 0 1-15.818276 6.553651zM740.73841 304.009491a22.378321 22.378321 0 0 1-15.821473-38.199794l86.767144-86.763948a22.378321 22.378321 0 1 1 31.642946 31.646143l-86.767144 86.763948a22.311186 22.311186 0 0 1-15.821473 6.553651zM827.502357 852.885767a22.314383 22.314383 0 0 1-15.821473-6.550454l-86.767144-86.731979a22.387912 22.387912 0 0 1-0.006394-31.649339 22.384715 22.384715 0 0 1 31.64934-0.006394l86.767144 86.731978a22.387912 22.387912 0 0 1 0.006394 31.64934 22.314383 22.314383 0 0 1-15.827867 6.556848zM278.594112 304.009491a22.31758 22.31758 0 0 1-15.82467-6.553651l-86.763947-86.763948a22.378321 22.378321 0 0 1 31.646142-31.646143l86.763948 86.763948a22.375124 22.375124 0 0 1-15.821473 38.199794zM314.751085 536.680091a22.378321 22.378321 0 0 1-22.378321-22.378321c0-121.87873 99.155143-221.033873 221.033873-221.033873a22.378321 22.378321 0 1 1 0 44.756642c-97.198639 0-176.277231 79.075396-176.277231 176.277231a22.378321 22.378321 0 0 1-22.378321 22.378321z" fill="#4F46A3" /></svg>