<?xml version="1.0" encoding="utf-8"?>
<!-- Uploaded to: SVG Repo, www.svgrepo.com, Generator: SVG Repo Mixer Tools -->
<svg width="800px" height="800px" viewBox="0 0 1024 1024" class="icon"  version="1.1" xmlns="http://www.w3.org/2000/svg"><path d="M527.1552 952.32c-125.68576 0-232.92928-44.4928-321.97632-133.56032C116.15232 729.6512 71.68 622.26432 71.68 496.60928c0-90.4192 25.53856-174.11072 76.51328-251.47392 51.11808-77.2608 117.8624-134.17472 200.2944-170.92608 5.18144-3.96288 10.47552-3.24608 15.6672 1.9456 6.52288 3.96288 8.5504 9.7792 5.90848 17.7152-20.86912 49.8688-31.36512 100.16768-31.36512 151.27552 0 116.5824 41.5744 216.40192 124.7232 299.58144 83.10784 83.16928 182.8864 124.76416 299.39712 124.76416 64.1024 0 119.77728-9.7792 166.90176-29.42976 5.19168-4.03456 10.38336-3.35872 15.59552 1.83296 6.49216 3.98336 8.52992 9.79968 5.86752 17.7152-33.97632 89.088-89.28256 160.1024-165.90848 213.1456C708.75136 925.7984 622.6944 952.32 527.1552 952.32z" fill="#Fb870B" /></svg>